<svg width="159" height="145" viewBox="0 0 159 145" fill="none" xmlns="http://www.w3.org/2000/svg">
<g clip-path="url(#clip0_860:1230)">
<path fill-rule="evenodd" clip-rule="evenodd" d="M41.5385 79.5693L44.9769 84.7873C48.3802 89.9519 41.8735 94.2395 38.4702 89.0749L35.0318 83.8569C31.6285 78.6922 38.1352 74.4046 41.5385 79.5693ZM112.874 2.7625L113.563 3.8077C114.782 6.46308 112.573 9.53599 112.55 13.1308C113.814 13.6633 115.927 13.9229 117.395 14.2264C118.877 14.533 120.325 14.4529 121.526 15.8929L122.14 16.8251C123.003 18.534 122.322 19.9637 122.014 21.4719C121.717 22.9256 121.155 24.8 121.146 26.175C124.424 27.5575 128.223 26.7266 130.16 28.9957L130.703 29.8195C132.064 32.5871 129.605 36.033 129.773 39.2671C123.787 42.5843 108.729 53.0679 101.328 57.945C100.123 58.7391 92.4621 63.3866 92.3032 64.1827L91.0926 64.3949L57.8226 64.1349C54.3084 64.2256 52.4072 67.8437 54.646 70.5633C56.2946 72.5669 60.3779 71.9876 62.796 72.0068C65.0932 72.0239 78.5778 71.8531 79.6834 72.3315L28.6966 105.877C25.7216 104.401 21.6624 105.362 19.6495 103.007L19.1067 102.183C17.791 99.5121 20.0458 96.2568 20.0677 92.7824C18.8042 92.2499 16.6903 91.9894 15.2241 91.6862C13.7417 91.3796 12.2938 91.4597 11.0929 90.0197L10.5109 89.1364C9.19517 86.4656 11.45 83.2103 11.4725 79.7368C9.60247 78.9482 6.41206 78.7886 4.28796 78.1534C3.58887 77.9443 3.01907 77.5721 2.58214 77.1022L1.86468 76.0134C1.21046 74.5513 1.41433 72.7456 2.50144 71.6835C3.43037 70.7754 17.1991 61.9308 19.5588 60.3758C48.5549 41.2687 78.4452 21.9155 107.191 2.62134C109.067 1.36208 111.02 0.876293 112.658 2.52963C112.734 2.60689 112.806 2.68471 112.875 2.76192L112.874 2.7625ZM98.7686 38.7965C103.552 43.8947 102.264 51.3028 98.0877 55.1989C92.9349 60.0054 85.477 58.8165 81.5425 54.5416C76.7785 49.3652 77.9273 41.9958 82.171 38.0307C87.4845 33.0661 94.7172 34.4774 98.7701 38.7968L98.7686 38.7965Z" fill="#00B3BC"/>
<path fill-rule="evenodd" clip-rule="evenodd" d="M54.4337 99.1398L57.8722 104.358C61.2514 109.486 54.7448 113.774 51.3655 108.645C49.2495 105.434 44.4478 100.168 48.6294 97.4124C50.462 96.2048 52.8828 96.7861 54.4337 99.1398ZM138.76 42.0469L139.301 42.8688C140.617 45.5396 138.362 48.795 138.34 52.2693C141.619 53.6519 145.418 52.821 147.355 55.0901L147.898 55.9147C149.214 58.5855 146.959 61.8409 146.936 65.3144C148.181 65.8391 150.656 66.1789 152.14 66.4843C153.322 66.7279 154.718 66.8154 155.754 67.8372L156.629 69.1652C156.688 69.3026 156.744 69.4485 156.795 69.6036C157.618 72.0772 155.888 73.4711 154.256 74.5273C127.45 91.8747 100.059 110.236 73.3443 127.839C71.5295 125.085 69.6982 122.337 67.9009 119.573C66.3773 117.228 64.2146 115.207 61.523 116.981C60.4137 117.712 59.8859 119.107 59.8684 120.17C59.8284 122.489 65.3798 129.915 66.8382 132.128L49.7187 143.341C48.2923 143.929 46.5998 143.425 45.5262 142.275L44.7795 141.142C44.5011 140.501 44.3854 139.764 44.5056 138.965C44.818 136.887 45.8471 133.79 45.8589 131.921C42.5805 130.539 38.7814 131.37 36.8446 129.1L36.3012 128.276C34.9855 125.605 37.2403 122.35 37.2628 118.876C35.9993 118.344 33.8854 118.083 32.4192 117.78C30.9368 117.473 29.489 117.554 28.288 116.114L27.6737 115.181C26.8111 113.472 27.4919 112.043 27.8001 110.535C28.1004 109.069 28.5875 107.256 28.6996 105.881L79.6863 72.3352L79.8425 72.0295C80.9159 72.4589 94.0992 72.3042 96.5132 72.3209C102.121 72.3597 107.571 72.4412 113.195 72.4341C119.229 72.4258 119.388 64.5498 113.341 64.4015C110.072 64.3217 93.3439 64.4595 92.3061 64.1865C92.465 63.3903 100.126 58.7429 101.331 57.9487C108.732 53.0717 123.789 42.5896 129.776 39.2709C133.451 40.5225 136.947 39.9233 138.762 42.0481L138.76 42.0469ZM90.2005 82.2996C94.6753 87.5006 93.4027 94.9121 88.9005 98.7668C83.6726 103.241 76.2784 101.989 72.4258 97.4634C67.9448 92.1988 69.1571 84.8271 73.6729 80.9659C78.9685 76.4379 86.2838 77.7463 90.2011 82.3005L90.2005 82.2996Z" fill="#01A7AF"/>
<path fill-rule="evenodd" clip-rule="evenodd" d="M90.198 82.3013C86.2812 77.7481 78.966 76.4396 73.6698 80.9668C69.154 84.8279 67.9417 92.1996 72.4227 97.4642C76.2744 101.99 83.6686 103.243 88.8974 98.7677C93.4002 94.9139 94.6722 87.5015 90.1974 82.3005L90.198 82.3013Z" fill="#9DDBD8"/>
<path fill-rule="evenodd" clip-rule="evenodd" d="M98.7673 38.7992C94.7145 34.4799 87.4831 33.0689 82.1682 38.0332C77.9246 41.9982 76.7757 49.3677 81.5397 54.5441C85.4742 58.819 92.9327 60.0088 98.085 55.2014C102.261 51.3053 103.55 43.8972 98.7659 38.7989L98.7673 38.7992Z" fill="#B7F4F1"/>
<path fill-rule="evenodd" clip-rule="evenodd" d="M92.3054 64.1803L91.0948 64.3925C90.9094 65.0633 89.5278 65.7364 88.7557 66.2413C87.7408 66.905 86.73 67.5749 85.7174 68.2421C83.9008 69.4392 81.72 71.0472 79.8403 72.023C80.9137 72.4524 94.097 72.2977 96.5111 72.3144C102.119 72.3533 107.569 72.4348 113.193 72.4276C119.227 72.4193 119.386 64.5433 113.338 64.395C110.069 64.3152 93.3417 64.453 92.304 64.18L92.3054 64.1803Z" fill="#9DDBD8"/>
<path fill-rule="evenodd" clip-rule="evenodd" d="M79.6775 72.328L79.8336 72.0222C81.7133 71.0464 83.8933 69.439 85.7107 68.2414C86.7233 67.5741 87.7335 66.9033 88.749 66.2405C89.522 65.735 90.9027 65.0625 91.0881 64.3917L57.8182 64.1317C54.304 64.2224 52.4027 67.8406 54.6415 70.5601C56.2902 72.5637 60.3734 71.9845 62.7916 72.0036C65.0888 72.0208 78.5733 71.85 79.6789 72.3283L79.6775 72.328Z" fill="#B7F4F1"/>
</g>
<defs>
<clipPath id="clip0_860:1230">
<rect width="86" height="133" fill="white" transform="translate(111.055) rotate(56.6169)"/>
</clipPath>
</defs>
</svg>
